<svg width="18" height="17" viewBox="0 0 18 17" fill="none" xmlns="http://www.w3.org/2000/svg">
<path fill-rule="evenodd" clip-rule="evenodd" d="M17.784 9.43202L16.1301 7.63413C16.0206 7.52628 15.873 7.46582 15.7193 7.46582C15.5655 7.46582 15.418 7.52628 15.3084 7.63413L13.6524 9.43202C13.5984 9.48548 13.5555 9.54913 13.5262 9.61929C13.497 9.68944 13.4819 9.7647 13.4819 9.84072C13.4819 9.91674 13.497 9.992 13.5262 10.0622C13.5555 10.1323 13.5984 10.196 13.6524 10.2494H15.0226C14.7663 11.2123 14.2603 12.0904 13.5559 12.795C12.8515 13.4997 11.9735 14.0058 11.0107 14.2624C9.88555 14.5567 8.69727 14.4995 7.60563 14.0984C6.51399 13.6973 5.57134 12.9715 4.90444 12.0187L3.74927 12.8139C4.5814 14.0028 5.75767 14.9083 7.11985 15.4086C8.48203 15.9089 9.96475 15.98 11.3686 15.6124C12.6311 15.2776 13.776 14.5991 14.6757 13.6522C15.5754 12.7054 16.1947 11.5274 16.4647 10.2494H17.7829C17.8369 10.196 17.8798 10.1323 17.9091 10.0622C17.9383 9.99213 17.9535 9.91692 17.9536 9.84094C17.9537 9.76497 17.9387 9.68972 17.9096 9.61954C17.8805 9.54935 17.8378 9.48562 17.784 9.43202Z" fill="#E3433D"/>
<path fill-rule="evenodd" clip-rule="evenodd" d="M5.79698 8.49277C5.85102 8.4393 5.89392 8.37565 5.92319 8.3055C5.95247 8.23534 5.96755 8.16008 5.96755 8.08406C5.96755 8.00805 5.95247 7.93278 5.92319 7.86263C5.89392 7.79247 5.85102 7.72882 5.79698 7.67536H4.25427C4.51673 6.72466 5.02334 5.85918 5.72378 5.16486C6.42423 4.47055 7.29413 3.97156 8.2471 3.71747C9.37227 3.42282 10.5607 3.48013 11.6523 3.88167C12.7439 4.28322 13.6862 5.0097 14.3523 5.96324L15.5085 5.167C14.6761 3.9775 13.4994 3.07146 12.1367 2.57077C10.7739 2.07008 9.29053 1.99876 7.88604 2.36642C6.63324 2.69964 5.49633 3.37126 4.59986 4.30769C3.7034 5.24411 3.08198 6.40922 2.80368 7.67536H1.26627C1.21223 7.72882 1.16933 7.79247 1.14006 7.86263C1.11078 7.93278 1.0957 8.00805 1.0957 8.08406C1.0957 8.16008 1.11078 8.23534 1.14006 8.3055C1.16933 8.37565 1.21223 8.4393 1.26627 8.49277L3.00063 10.2261C3.11016 10.3339 3.25772 10.3944 3.41145 10.3944C3.56518 10.3944 3.71274 10.3339 3.82227 10.2261L5.79698 8.49277Z" fill="#000100"/>
</svg>
