<svg width="6%" height="40" viewBox="0 0 8 50" fill="none" xmlns="http://www.w3.org/2000/svg">
<path d="M3.64645 49.3536C3.84171 49.5488 4.15829 49.5488 4.35355 49.3536L7.53553 46.1716C7.7308 45.9763 7.7308 45.6597 7.53553 45.4645C7.34027 45.2692 7.02369 45.2692 6.82843 45.4645L4 48.2929L1.17157 45.4645C0.976311 45.2692 0.659729 45.2692 0.464467 45.4645C0.269205 45.6597 0.269205 45.9763 0.464467 46.1716L3.64645 49.3536ZM3.5 6.69052e-09L3.5 2.04167L4.5 2.04167L4.5 -6.69052e-09L3.5 6.69052e-09ZM3.5 4.08333L3.5 8.16667L4.5 8.16667L4.5 4.08333L3.5 4.08333ZM3.5 10.2083L3.5 14.2917L4.5 14.2917L4.5 10.2083L3.5 10.2083ZM3.5 16.3333L3.5 20.4167L4.5 20.4167L4.5 16.3333L3.5 16.3333ZM3.5 22.4583L3.5 26.5417L4.5 26.5417L4.5 22.4583L3.5 22.4583ZM3.5 28.5833L3.5 32.6667L4.5 32.6667L4.5 28.5833L3.5 28.5833ZM3.5 34.7083L3.5 38.7917L4.5 38.7917L4.5 34.7083L3.5 34.7083ZM3.5 40.8333L3.5 44.9167L4.5 44.9167L4.5 40.8333L3.5 40.8333ZM3.5 46.9583L3.5 49L4.5 49L4.5 46.9583L3.5 46.9583Z" fill="#6C757D"/>
</svg>
