<svg width="14" height="14" viewBox="0 0 14 14" fill="none" xmlns="http://www.w3.org/2000/svg">
<path d="M6.99984 1.16663C3.78334 1.16663 1.1665 3.78346 1.1665 6.99996C1.1665 10.2165 3.78334 12.8333 6.99984 12.8333C10.2163 12.8333 12.8332 10.2165 12.8332 6.99996C12.8332 3.78346 10.2163 1.16663 6.99984 1.16663ZM6.99984 11.6666C4.42675 11.6666 2.33317 9.57304 2.33317 6.99996C2.33317 4.42688 4.42675 2.33329 6.99984 2.33329C9.57292 2.33329 11.6665 4.42688 11.6665 6.99996C11.6665 9.57304 9.57292 11.6666 6.99984 11.6666Z" fill="#6C757D"/>
<path d="M7.58317 4.08337H6.4165V7.24154L8.33742 9.16246L9.16225 8.33762L7.58317 6.75854V4.08337Z" fill="#6C757D"/>
</svg>
