<svg width="20" height="20" viewBox="0 0 20 20" fill="none" xmlns="http://www.w3.org/2000/svg">
<path d="M4.58341 12.5C5.34175 12.5 6.02758 12.2016 6.54758 11.725L11.7642 14.7058C11.7025 14.9378 11.6697 15.1766 11.6667 15.4166C11.6667 17.025 12.9751 18.3333 14.5834 18.3333C16.1917 18.3333 17.5001 17.025 17.5001 15.4166C17.5001 13.8083 16.1917 12.5 14.5834 12.5C13.8251 12.5 13.1392 12.7983 12.6192 13.275L7.40258 10.2941C7.45508 10.0883 7.48841 9.87579 7.49258 9.65413L12.6184 6.72496C13.1392 7.20163 13.8251 7.49996 14.5834 7.49996C16.1917 7.49996 17.5001 6.19163 17.5001 4.58329C17.5001 2.97496 16.1917 1.66663 14.5834 1.66663C12.9751 1.66663 11.6667 2.97496 11.6667 4.58329C11.6667 4.82996 11.7067 5.06496 11.7642 5.29413L7.02758 8.00163C6.76403 7.59273 6.40229 7.25634 5.97535 7.02315C5.54842 6.78996 5.06988 6.66739 4.58341 6.66663C2.97508 6.66663 1.66675 7.97496 1.66675 9.58329C1.66675 11.1916 2.97508 12.5 4.58341 12.5ZM14.5834 14.1666C15.2726 14.1666 15.8334 14.7275 15.8334 15.4166C15.8334 16.1058 15.2726 16.6666 14.5834 16.6666C13.8942 16.6666 13.3334 16.1058 13.3334 15.4166C13.3334 14.7275 13.8942 14.1666 14.5834 14.1666ZM14.5834 3.33329C15.2726 3.33329 15.8334 3.89413 15.8334 4.58329C15.8334 5.27246 15.2726 5.83329 14.5834 5.83329C13.8942 5.83329 13.3334 5.27246 13.3334 4.58329C13.3334 3.89413 13.8942 3.33329 14.5834 3.33329ZM4.58341 8.33329C5.27258 8.33329 5.83341 8.89413 5.83341 9.58329C5.83341 10.2725 5.27258 10.8333 4.58341 10.8333C3.89425 10.8333 3.33341 10.2725 3.33341 9.58329C3.33341 8.89413 3.89425 8.33329 4.58341 8.33329Z" fill="white"/>
</svg>
