<svg width="14" height="14" viewBox="0 0 14 14" fill="none" xmlns="http://www.w3.org/2000/svg">
<path d="M7 3.5C6.56735 3.5 6.14442 3.62829 5.78469 3.86866C5.42496 4.10903 5.14458 4.45067 4.97901 4.85038C4.81345 5.25009 4.77013 5.68993 4.85453 6.11426C4.93894 6.53859 5.14728 6.92837 5.45321 7.2343C5.75913 7.54022 6.14891 7.74856 6.57324 7.83297C6.99757 7.91737 7.43741 7.87405 7.83712 7.70849C8.23683 7.54292 8.57848 7.26254 8.81884 6.90281C9.05921 6.54308 9.1875 6.12015 9.1875 5.6875C9.1875 5.10734 8.95703 4.55094 8.5468 4.1407C8.13656 3.73047 7.58016 3.5 7 3.5ZM7 7C6.74041 7 6.48665 6.92302 6.27082 6.7788C6.05498 6.63458 5.88675 6.4296 5.78741 6.18977C5.68807 5.94994 5.66208 5.68604 5.71272 5.43144C5.76336 5.17684 5.88837 4.94298 6.07192 4.75942C6.25548 4.57587 6.48935 4.45086 6.74395 4.40022C6.99855 4.34958 7.26244 4.37557 7.50227 4.47491C7.7421 4.57425 7.94709 4.74247 8.09131 4.95831C8.23552 5.17415 8.3125 5.42791 8.3125 5.6875C8.31215 6.03549 8.17376 6.36913 7.9277 6.61519C7.68163 6.86126 7.34799 6.99965 7 7Z" fill="#E3433D"/>
<path d="M7 0.875C5.78859 0.875 4.60439 1.23423 3.59713 1.90725C2.58988 2.58027 1.80483 3.53687 1.34124 4.65606C0.877654 5.77526 0.756358 7.00679 0.992693 8.19493C1.22903 9.38306 1.81238 10.4744 2.66897 11.331C3.52557 12.1876 4.61694 12.771 5.80507 13.0073C6.99321 13.2436 8.22474 13.1223 9.34394 12.6588C10.4631 12.1952 11.4197 11.4101 12.0928 10.4029C12.7658 9.39562 13.125 8.21141 13.125 7C13.1231 5.37612 12.4772 3.81928 11.329 2.67102C10.1807 1.52276 8.62389 0.876853 7 0.875ZM4.375 11.5399V10.9375C4.37535 10.5895 4.51374 10.2559 4.75981 10.0098C5.00588 9.76374 5.33951 9.62535 5.6875 9.625H8.3125C8.66049 9.62535 8.99413 9.76374 9.2402 10.0098C9.48626 10.2559 9.62465 10.5895 9.625 10.9375V11.5399C8.82839 12.0051 7.92248 12.2502 7 12.2502C6.07753 12.2502 5.17162 12.0051 4.375 11.5399ZM10.4965 10.9051C10.4878 10.3313 10.254 9.78381 9.84546 9.38069C9.43695 8.97758 8.88642 8.75108 8.3125 8.75H5.6875C5.11358 8.75108 4.56306 8.97758 4.15454 9.38069C3.74603 9.78381 3.51222 10.3313 3.5035 10.9051C2.71012 10.1967 2.15063 9.26401 1.89912 8.23054C1.6476 7.19707 1.71592 6.11159 2.09503 5.11781C2.47414 4.12404 3.14616 3.26885 4.0221 2.6655C4.89804 2.06214 5.93659 1.73907 7.00022 1.73907C8.06385 1.73907 9.1024 2.06214 9.97834 2.6655C10.8543 3.26885 11.5263 4.12404 11.9054 5.11781C12.2845 6.11159 12.3528 7.19707 12.1013 8.23054C11.8498 9.26401 11.2903 10.1967 10.4969 10.9051H10.4965Z" fill="#E3433D"/>
</svg>
