<svg width="22" height="22" viewBox="0 0 22 22" fill="none" xmlns="http://www.w3.org/2000/svg">
<g clip-path="url(#clip0)">
<path d="M20.625 12.375V11H16.5V17.875H17.875V15.125H19.9375V13.75H17.875V12.375H20.625Z" fill="#E3433D"/>
<path d="M13.0625 17.875H10.3125V11H13.0625C13.6093 11.0005 14.1336 11.218 14.5203 11.6047C14.907 11.9914 15.1245 12.5157 15.125 13.0625V15.8125C15.1245 16.3593 14.907 16.8836 14.5203 17.2703C14.1336 17.657 13.6093 17.8745 13.0625 17.875ZM11.6875 16.5H13.0625C13.2448 16.4998 13.4195 16.4273 13.5484 16.2984C13.6773 16.1695 13.7498 15.9948 13.75 15.8125V13.0625C13.7498 12.8802 13.6773 12.7055 13.5484 12.5766C13.4195 12.4477 13.2448 12.3752 13.0625 12.375H11.6875V16.5Z" fill="#E3433D"/>
<path d="M7.5625 11H4.125V17.875H5.5V15.8125H7.5625C7.92701 15.812 8.27642 15.6669 8.53417 15.4092C8.79191 15.1514 8.93695 14.802 8.9375 14.4375V12.375C8.93714 12.0104 8.79215 11.6609 8.53437 11.4031C8.27659 11.1453 7.92706 11.0004 7.5625 11ZM5.5 14.4375V12.375H7.5625L7.56319 14.4375H5.5Z" fill="#E3433D"/>
<path d="M15.125 9.62496V6.87496C15.1274 6.78461 15.1102 6.6948 15.0746 6.61172C15.039 6.52864 14.9859 6.45427 14.9188 6.39371L10.1062 1.58121C10.0457 1.51407 9.97135 1.46086 9.88827 1.42525C9.80518 1.38965 9.71536 1.37249 9.625 1.37496H2.75C2.38566 1.37605 2.03656 1.52126 1.77893 1.77889C1.5213 2.03652 1.37609 2.38562 1.375 2.74996V19.25C1.375 19.6146 1.51987 19.9644 1.77773 20.2222C2.03559 20.4801 2.38533 20.625 2.75 20.625H13.75V19.25H2.75V2.74996H8.25V6.87496C8.25109 7.2393 8.3963 7.5884 8.65393 7.84603C8.91156 8.10366 9.26066 8.24887 9.625 8.24996H13.75V9.62496H15.125ZM9.625 6.87496V3.02496L13.475 6.87496H9.625Z" fill="#E3433D"/>
</g>
<defs>
<clipPath id="clip0">
<rect width="22" height="22" fill="white"/>
</clipPath>
</defs>
</svg>
