<svg width="100%" height="30%" viewBox="0 0 178 38" fill="none" xmlns="http://www.w3.org/2000/svg">
<path d="M176.408 4.28872C176.568 4.06328 176.514 3.75125 176.289 3.59178L172.615 0.993195C172.389 0.833731 172.077 0.887223 171.918 1.11267C171.758 1.33812 171.812 1.65015 172.037 1.80961L175.303 4.11947L172.993 7.38513C172.834 7.61058 172.887 7.92261 173.113 8.08207C173.338 8.24153 173.65 8.18804 173.81 7.9626L176.408 4.28872ZM1.08448 34.4928L3.02893 34.1595L2.85996 33.1739L0.915518 33.5072L1.08448 34.4928ZM4.97337 33.8261L8.86226 33.1595L8.6933 32.1739L4.80441 32.8405L4.97337 33.8261ZM10.8067 32.8261L14.6956 32.1595L14.5266 31.1739L10.6377 31.8405L10.8067 32.8261ZM16.64 31.8261L20.5289 31.1595L20.36 30.1739L16.4711 30.8405L16.64 31.8261ZM22.4734 30.8261L26.3623 30.1595L26.1933 29.1739L22.3044 29.8405L22.4734 30.8261ZM28.3067 29.8261L32.1956 29.1595L32.0266 28.1739L28.1377 28.8405L28.3067 29.8261ZM34.14 28.8261L38.0289 28.1595L37.86 27.1739L33.9711 27.8405L34.14 28.8261ZM39.9734 27.8261L43.8623 27.1595L43.6933 26.1739L39.8044 26.8405L39.9734 27.8261ZM45.8067 26.8261L49.6956 26.1595L49.5266 25.1739L45.6377 25.8405L45.8067 26.8261ZM51.64 25.8261L55.5289 25.1595L55.36 24.1739L51.4711 24.8405L51.64 25.8261ZM57.4734 24.8261L61.3623 24.1595L61.1933 23.1739L57.3044 23.8405L57.4734 24.8261ZM63.3067 23.8261L67.1956 23.1595L67.0266 22.1739L63.1377 22.8405L63.3067 23.8261ZM69.14 22.8261L73.0289 22.1595L72.86 21.1739L68.9711 21.8405L69.14 22.8261ZM74.9734 21.8261L78.8623 21.1595L78.6933 20.1739L74.8044 20.8405L74.9734 21.8261ZM80.8067 20.8261L84.6956 20.1595L84.5266 19.1739L80.6377 19.8405L80.8067 20.8261ZM86.64 19.8261L90.5289 19.1595L90.36 18.1739L86.4711 18.8405L86.64 19.8261ZM92.4734 18.8261L96.3623 18.1595L96.1933 17.1739L92.3044 17.8405L92.4734 18.8261ZM98.3067 17.8261L102.196 17.1595L102.027 16.1739L98.1377 16.8405L98.3067 17.8261ZM104.14 16.8261L108.029 16.1595L107.86 15.1739L103.971 15.8405L104.14 16.8261ZM109.973 15.8261L113.862 15.1595L113.693 14.1739L109.804 14.8405L109.973 15.8261ZM115.807 14.8261L119.696 14.1595L119.527 13.1739L115.638 13.8405L115.807 14.8261ZM121.64 13.8261L125.529 13.1595L125.36 12.1739L121.471 12.8405L121.64 13.8261ZM127.473 12.8261L131.362 12.1595L131.193 11.1739L127.304 11.8405L127.473 12.8261ZM133.307 11.8261L137.196 11.1595L137.027 10.1739L133.138 10.8405L133.307 11.8261ZM139.14 10.8261L143.029 10.1595L142.86 9.17385L138.971 9.84052L139.14 10.8261ZM144.973 9.82614L148.862 9.15947L148.693 8.17385L144.804 8.84052L144.973 9.82614ZM150.807 8.82614L154.696 8.15947L154.527 7.17385L150.638 7.84052L150.807 8.82614ZM156.64 7.82614L160.529 7.15947L160.36 6.17385L156.471 6.84052L156.64 7.82614ZM162.473 6.82614L166.362 6.15947L166.193 5.17385L162.304 5.84052L162.473 6.82614ZM168.307 5.82614L172.196 5.15947L172.027 4.17385L168.138 4.84052L168.307 5.82614ZM174.14 4.82614L176.084 4.4928L175.916 3.50718L173.971 3.84052L174.14 4.82614Z" fill="#6C757D"/>
</svg>
