<svg width="100%" height="20%" viewBox="0 0 151 8" fill="none" xmlns="http://www.w3.org/2000/svg">
<path d="M150.354 4.35357C150.549 4.1583 150.549 3.84172 150.354 3.64646L147.172 0.464479C146.976 0.269217 146.66 0.269217 146.464 0.464479C146.269 0.659741 146.269 0.976324 146.464 1.17159L149.293 4.00001L146.464 6.82844C146.269 7.0237 146.269 7.34028 146.464 7.53555C146.66 7.73081 146.976 7.73081 147.172 7.53555L150.354 4.35357ZM-4.37114e-08 4.5L2 4.5L2 3.5L4.37114e-08 3.5L-4.37114e-08 4.5ZM4 4.5L8 4.5L8 3.5L4 3.5L4 4.5ZM10 4.5L14 4.5L14 3.5L10 3.5L10 4.5ZM16 4.5L20 4.5L20 3.5L16 3.5L16 4.5ZM22 4.5L26 4.5L26 3.5L22 3.5L22 4.5ZM28 4.5L32 4.5L32 3.5L28 3.5L28 4.5ZM34 4.5L38 4.5L38 3.5L34 3.5L34 4.5ZM40 4.5L44 4.5L44 3.5L40 3.5L40 4.5ZM46 4.5L50 4.5L50 3.5L46 3.5L46 4.5ZM52 4.5L56 4.5L56 3.5L52 3.5L52 4.5ZM58 4.50001L62 4.50001L62 3.50001L58 3.50001L58 4.50001ZM64 4.50001L68 4.50001L68 3.50001L64 3.50001L64 4.50001ZM70 4.50001L74 4.50001L74 3.50001L70 3.50001L70 4.50001ZM76 4.50001L80 4.50001L80 3.50001L76 3.50001L76 4.50001ZM82 4.50001L86 4.50001L86 3.50001L82 3.50001L82 4.50001ZM88 4.50001L92 4.50001L92 3.50001L88 3.50001L88 4.50001ZM94 4.50001L98 4.50001L98 3.50001L94 3.50001L94 4.50001ZM100 4.50001L104 4.50001L104 3.50001L100 3.50001L100 4.50001ZM106 4.50001L110 4.50001L110 3.50001L106 3.50001L106 4.50001ZM112 4.50001L116 4.50001L116 3.50001L112 3.50001L112 4.50001ZM118 4.50001L122 4.50001L122 3.50001L118 3.50001L118 4.50001ZM124 4.50001L128 4.50001L128 3.50001L124 3.50001L124 4.50001ZM130 4.50001L134 4.50001L134 3.50001L130 3.50001L130 4.50001ZM136 4.50001L140 4.50001L140 3.50001L136 3.50001L136 4.50001ZM142 4.50001L146 4.50001L146 3.50001L142 3.50001L142 4.50001ZM148 4.50001L150 4.50001L150 3.50001L148 3.50001L148 4.50001Z" fill="#6C757D"/>
</svg>
