<svg xmlns="http://www.w3.org/2000/svg" width="34" height="34" viewBox="0 0 34 34">
  <g id="mdi_camera-plus-outline" transform="translate(1 -0.333)">
    <rect id="Rectangle_5" data-name="Rectangle 5" width="34" height="34" transform="translate(-1 0.333)" fill="none"/>
    <path id="Path_16" data-name="Path 16" d="M28,8H23.733l-2.4-2.667h-8V8h6.8l2.533,2.667H28v16H6.667v-12H4v12a2.675,2.675,0,0,0,2.667,2.667H28a2.675,2.675,0,0,0,2.667-2.667v-16A2.675,2.675,0,0,0,28,8ZM10.667,18.667A6.67,6.67,0,1,0,17.333,12,6.674,6.674,0,0,0,10.667,18.667Zm6.667-4a4.12,4.12,0,0,1,4,4,4.12,4.12,0,0,1-4,4,4.12,4.12,0,0,1-4-4,4.12,4.12,0,0,1,4-4Z" fill="#000100"/>
    <path id="Path_17" data-name="Path 17" d="M5.324,6.658H8.519V4.528H5.324V1.333H3.195V4.528H0v2.13H3.195V9.852h2.13" transform="translate(1 4)" fill="#e3433d"/>
  </g>
</svg>
