<svg width="32" height="32" viewBox="0 0 32 32" fill="none" xmlns="http://www.w3.org/2000/svg">
<path d="M10.6667 16H21.3334V18.6667H10.6667V16ZM13.3334 26.6667H8.00004V5.33335H17.3334V12H24V16.1334L26.6667 13.4667V10.6667L18.6667 2.66669H8.00004C7.2928 2.66669 6.61452 2.94764 6.11442 3.44774C5.61433 3.94783 5.33337 4.62611 5.33337 5.33335V26.6667C5.33337 27.3739 5.61433 28.0522 6.11442 28.5523C6.61452 29.0524 7.2928 29.3334 8.00004 29.3334H13.3334V26.6667ZM10.6667 24H16.1334L17.3334 22.8V21.3334H10.6667V24Z" fill="#000100"/>
<path d="M26.9333 17.3333C27.0667 17.3333 27.3333 17.4666 27.4667 17.6L29.2 19.3333C29.4667 19.6 29.4667 20.1333 29.2 20.4L27.8667 21.7333L25.0667 18.9333L26.4 17.6C26.5333 17.4666 26.6667 17.3333 26.9333 17.3333ZM26.9333 22.5333L18.8 30.6666H16V27.8666L24.1333 19.7333L26.9333 22.5333Z" fill="#E3433D"/>
</svg>
