<svg width="32" height="32" viewBox="0 0 32 32" fill="none" xmlns="http://www.w3.org/2000/svg">
<path d="M18.6667 2.66669L26.6667 10.6667V26.6667C26.6667 27.3739 26.3858 28.0522 25.8857 28.5523C25.3856 29.0524 24.7073 29.3334 24 29.3334H8.00004C7.2928 29.3334 6.61452 29.0524 6.11442 28.5523C5.61433 28.0522 5.33337 27.3739 5.33337 26.6667V5.33335C5.33337 4.62611 5.61433 3.94783 6.11442 3.44774C6.61452 2.94764 7.2928 2.66669 8.00004 2.66669H18.6667ZM24 26.6667V12H17.3334V5.33335H8.00004V26.6667H24Z" fill="#000100"/>
<path d="M14.9334 22.8355L11.2667 18.8355L12.8134 17.2889L14.9334 19.3955L19.7067 14.6222L21.2667 16.5022L14.9334 22.8355Z" fill="#E3433D"/>
</svg>
