<svg width="32" height="32" viewBox="0 0 32 32" fill="none" xmlns="http://www.w3.org/2000/svg">
<path d="M32 22.6666V25.3333H28V22.6666C28 20.6 27.0667 18.7466 25.5734 17.4133C32 18.0666 32 22.6666 32 22.6666ZM24 6.66663C26.2134 6.66663 28 8.45329 28 10.6666C28.0008 11.2949 27.8534 11.9144 27.5698 12.475C27.2861 13.0355 26.8743 13.5213 26.3677 13.8928C25.8611 14.2643 25.274 14.5111 24.6541 14.6131C24.0342 14.7151 23.399 14.6695 22.8 14.48C23.56 13.4 24 12.0933 24 10.6666C24 9.25329 23.56 7.93329 22.8 6.85329C23.1734 6.73329 23.5867 6.66663 24 6.66663ZM17.3334 6.66663C19.5467 6.66663 21.3334 8.45329 21.3334 10.6666C21.3334 12.88 19.5467 14.6666 17.3334 14.6666C15.12 14.6666 13.3334 12.88 13.3334 10.6666C13.3334 8.45329 15.12 6.66663 17.3334 6.66663ZM25.3334 22.6666V25.3333H9.33337V22.6666C9.33337 19.72 12.92 17.3333 17.3334 17.3333C21.7467 17.3333 25.3334 19.72 25.3334 22.6666ZM17.3334 9.33329C16.6 9.33329 16 9.93329 16 10.6666C16 11.4 16.6 12 17.3334 12C18.0667 12 18.6667 11.4 18.6667 10.6666C18.6667 9.93329 18.0667 9.33329 17.3334 9.33329ZM17.3334 20C14.3867 20 12 21.2 12 22.6666H22.6667C22.6667 21.2 20.28 20 17.3334 20Z" fill="#000100"/>
<path d="M0.618652 17.4933L3.45332 14.6667L0.618652 11.84L2.50665 9.94666L5.33332 12.7867L8.15999 9.94666L10.0533 11.84L7.21332 14.6667L10.0533 17.4933L8.15999 19.3867L5.33332 16.5467L2.50665 19.3867L0.618652 17.4933Z" fill="#E3433D"/>
</svg>
