<svg width="22" height="20" viewBox="0 0 22 20" fill="none" xmlns="http://www.w3.org/2000/svg">
<path d="M20.4096 1.22566C20.1486 1.00855 19.8337 0.866277 19.4982 0.813978C19.1628 0.761678 18.8195 0.801311 18.5048 0.928659L2.0772 7.56074C1.72598 7.7053 1.42702 7.95323 1.21997 8.27163C1.01293 8.59004 0.907589 8.96387 0.917931 9.34354C0.928273 9.7232 1.05381 10.0907 1.27788 10.3974C1.50195 10.7041 1.81397 10.9354 2.17253 11.0606L5.49545 12.2165L7.34712 18.3417C7.3725 18.4234 7.40921 18.5011 7.4562 18.5727C7.46353 18.5837 7.47362 18.591 7.48095 18.6029C7.53497 18.6781 7.6002 18.7446 7.67437 18.8C7.69507 18.8162 7.71648 18.8315 7.73853 18.8458C7.82536 18.9035 7.9215 18.9456 8.0227 18.9705L8.03462 18.9714L8.04012 18.9742C8.10138 18.9865 8.16372 18.9926 8.2262 18.9925L8.2427 18.9897C8.33658 18.9882 8.42965 18.9721 8.51862 18.9421C8.5397 18.9347 8.55712 18.9237 8.57728 18.9146C8.64383 18.8873 8.70691 18.8522 8.7652 18.8101C8.81163 18.7706 8.85807 18.7312 8.90453 18.6918L11.3814 15.9574L15.0755 18.8192C15.4007 19.0725 15.801 19.2102 16.2131 19.2107C16.6451 19.2102 17.0637 19.0611 17.3989 18.7886C17.734 18.516 17.9652 18.1365 18.0538 17.7137L21.0449 3.03149C21.1125 2.70118 21.0892 2.35869 20.9773 2.04062C20.8654 1.72256 20.6692 1.44087 20.4096 1.22566ZM8.5892 12.508C8.46225 12.6347 8.37551 12.796 8.33987 12.9718L8.0557 14.3505L7.33703 11.9736L11.0633 10.033L8.5892 12.508ZM16.1994 17.37L11.8333 13.9875C11.6506 13.8465 11.4215 13.7796 11.1916 13.7999C10.9618 13.8203 10.7481 13.9266 10.593 14.0975L9.7992 14.9729L10.0797 13.6098L16.5725 7.11708C16.7265 6.96208 16.8201 6.75715 16.8364 6.53923C16.8527 6.32131 16.7906 6.10473 16.6613 5.92855C16.532 5.75237 16.3441 5.62817 16.1313 5.57835C15.9185 5.52853 15.6949 5.55636 15.5009 5.65683L6.18295 10.5078L2.76837 9.25841L19.2491 2.66666L16.1994 17.37Z" fill="rgba(189,189,189, 100%)"/>
</svg>
