<svg width="30" height="30" viewBox="0 0 22 22" fill="none" xmlns="http://www.w3.org/2000/svg">
<path d="M20.4096 2.22566C20.1486 2.00855 19.8337 1.86628 19.4982 1.81398C19.1628 1.76168 18.8195 1.80131 18.5048 1.92866L2.0772 8.56074C1.72598 8.7053 1.42702 8.95323 1.21997 9.27163C1.01293 9.59004 0.907589 9.96387 0.917931 10.3435C0.928273 10.7232 1.05381 11.0907 1.27788 11.3974C1.50195 11.7041 1.81397 11.9354 2.17253 12.0606L5.49545 13.2165L7.34712 19.3417C7.3725 19.4234 7.40921 19.5011 7.4562 19.5727C7.46353 19.5837 7.47362 19.591 7.48095 19.6029C7.53497 19.6781 7.6002 19.7446 7.67437 19.8C7.69507 19.8162 7.71648 19.8315 7.73853 19.8458C7.82536 19.9035 7.9215 19.9456 8.0227 19.9705L8.03462 19.9714L8.04012 19.9742C8.10138 19.9865 8.16372 19.9926 8.2262 19.9925L8.2427 19.9897C8.33658 19.9882 8.42965 19.9721 8.51862 19.9421C8.5397 19.9347 8.55712 19.9237 8.57728 19.9146C8.64383 19.8873 8.70691 19.8522 8.7652 19.8101C8.81163 19.7706 8.85807 19.7312 8.90453 19.6918L11.3814 16.9574L15.0755 19.8192C15.4007 20.0725 15.801 20.2102 16.2131 20.2107C16.6451 20.2102 17.0637 20.0611 17.3989 19.7886C17.734 19.516 17.9652 19.1365 18.0538 18.7137L21.0449 4.03149C21.1125 3.70118 21.0892 3.35869 20.9773 3.04062C20.8654 2.72256 20.6692 2.44087 20.4096 2.22566ZM8.5892 13.508C8.46225 13.6347 8.37551 13.796 8.33987 13.9718L8.0557 15.3505L7.33703 12.9736L11.0633 11.033L8.5892 13.508ZM16.1994 18.37L11.8333 14.9875C11.6506 14.8465 11.4215 14.7796 11.1916 14.7999C10.9618 14.8203 10.7481 14.9266 10.593 15.0975L9.7992 15.9729L10.0797 14.6098L16.5725 8.11708C16.7265 7.96208 16.8201 7.75715 16.8364 7.53923C16.8527 7.32131 16.7906 7.10473 16.6613 6.92855C16.532 6.75237 16.3441 6.62817 16.1313 6.57835C15.9185 6.52853 15.6949 6.55636 15.5009 6.65683L6.18295 11.5078L2.76837 10.2584L19.2491 3.66666L16.1994 18.37Z" fill="#2B9FD7"/>
</svg>
