<svg width="30" height="30" viewBox="0 0 24 24" fill="none" xmlns="http://www.w3.org/2000/svg">
<path d="M11.991 0.999987C10.5577 0.947774 9.12874 1.18657 7.79033 1.70197C6.45193 2.21737 5.23186 2.99866 4.2038 3.99869C3.17574 4.99871 2.36101 6.19671 1.80881 7.52036C1.25661 8.84401 0.978399 10.2658 0.99097 11.7C0.972043 13.1779 1.26651 14.643 1.85497 15.9989C2.44343 17.3547 3.31252 18.5704 4.40497 19.566L4.45697 21.256C4.47152 21.7234 4.66743 22.1669 5.00322 22.4924C5.339 22.8179 5.7883 23 6.25597 23C6.50584 22.9997 6.75297 22.948 6.98197 22.848L8.90297 22C9.91033 22.2681 10.9486 22.4025 11.991 22.4C13.4243 22.4522 14.8533 22.2134 16.1918 21.698C17.5302 21.1826 18.7503 20.4013 19.7785 19.4013C20.8066 18.4013 21.6214 17.2033 22.1738 15.8797C22.7261 14.556 23.0044 13.1342 22.992 11.7C23.0044 10.2659 22.7261 8.84411 22.1738 7.52053C21.6216 6.19695 20.8069 4.999 19.7788 3.99901C18.7508 2.99901 17.5308 2.21771 16.1924 1.70226C14.8541 1.18682 13.4242 0.947916 11.991 0.999987ZM11.991 20.4C11.1009 20.4028 10.2145 20.285 9.35597 20.05C8.95852 19.9429 8.53637 19.9754 8.15997 20.142L6.44597 20.898L6.40097 19.405C6.39116 19.1631 6.33292 18.9256 6.22968 18.7066C6.12645 18.4876 5.98033 18.2915 5.79997 18.13C4.90025 17.3205 4.18404 16.328 3.69939 15.219C3.21474 14.11 2.97286 12.9101 2.98997 11.7C2.98366 10.5302 3.21443 9.37125 3.66833 8.29309C4.12224 7.21493 4.78987 6.23991 5.63095 5.42687C6.47203 4.61382 7.46912 3.97961 8.56204 3.5625C9.65496 3.1454 10.8211 2.95404 11.99 2.99999C13.1573 2.96041 14.3206 3.15614 15.4107 3.57554C16.5008 3.99494 17.4954 4.62941 18.3351 5.44119C19.1749 6.25297 19.8427 7.22544 20.2988 8.3007C20.7549 9.37595 20.99 10.532 20.99 11.7C20.99 12.868 20.7549 14.024 20.2988 15.0993C19.8427 16.1745 19.1749 17.147 18.3351 17.9588C17.4954 18.7706 16.5008 19.405 15.4107 19.8244C14.3206 20.2438 13.1573 20.4396 11.99 20.4H11.991ZM15.726 8.58499L13.413 11.34L10.066 9.28399C9.86173 9.15827 9.61906 9.11031 9.38235 9.14887C9.14565 9.18743 8.93074 9.30995 8.77697 9.49399L5.72597 13.13C5.63461 13.2295 5.56434 13.3464 5.5194 13.4738C5.47447 13.6011 5.4558 13.7363 5.46452 13.871C5.47324 14.0058 5.50917 14.1374 5.57015 14.2579C5.63112 14.3784 5.71588 14.4854 5.8193 14.5722C5.92272 14.6591 6.04267 14.7241 6.1719 14.7633C6.30113 14.8026 6.43697 14.8152 6.57123 14.8005C6.70548 14.7858 6.83537 14.7441 6.95306 14.6778C7.07074 14.6116 7.17378 14.5222 7.25597 14.415L9.75497 11.44L13.102 13.496C13.3062 13.6217 13.5489 13.6697 13.7856 13.6311C14.0223 13.5925 14.2372 13.47 14.391 13.286L17.257 9.87099C17.3451 9.77096 17.4124 9.65433 17.4548 9.52794C17.4972 9.40155 17.5139 9.26795 17.5039 9.13501C17.4939 9.00207 17.4575 8.87247 17.3967 8.75382C17.3359 8.63518 17.252 8.52988 17.1499 8.44414C17.0478 8.35839 16.9296 8.29393 16.8022 8.25453C16.6749 8.21512 16.5409 8.20159 16.4083 8.21471C16.2756 8.22783 16.1469 8.26735 16.0297 8.33094C15.9125 8.39453 15.8093 8.4809 15.726 8.58499Z" fill="url(#paint0_linear)"/>
<defs>
<linearGradient id="paint0_linear" x1="21" y1="0.999986" x2="4" y2="23" gradientUnits="userSpaceOnUse">
<stop stop-color="#FF5E72"/>
<stop offset="0.489583" stop-color="#973AFF"/>
<stop offset="1" stop-color="#0F92FF"/>
</linearGradient>
</defs>
</svg>
