<svg width="32" height="32" viewBox="0 0 32 32" fill="none" xmlns="http://www.w3.org/2000/svg">
<g clip-path="url(#clip0)">
<path d="M18.5907 3.55602C18.4989 3.29594 18.3287 3.07074 18.1035 2.91147C17.8783 2.75219 17.6092 2.66667 17.3334 2.66669H14.6667C14.3909 2.66667 14.1219 2.75219 13.8967 2.91147C13.6715 3.07074 13.5013 3.29594 13.4094 3.55602L5.72275 25.3334H2.66675V28H29.3334V25.3334H26.2774L18.5907 3.55602ZM20.6267 17.3334H11.3734L12.7867 13.3334H19.2134L20.6267 17.3334ZM15.6094 5.33335H16.3907L18.2734 10.6667H13.7267L15.6094 5.33335ZM10.4334 20H21.5667L23.4494 25.3334H8.55075L10.4334 20Z" fill="black"/>
<path d="M29.3334 31.1111H2.66675" stroke="#E3433D" stroke-width="3.55556"/>
</g>
<defs>
<clipPath id="clip0">
<rect width="32" height="32" fill="white"/>
</clipPath>
</defs>
</svg>
