<svg xmlns="http://www.w3.org/2000/svg" width="100%" height="30%" viewBox="0 0 172.682 125">
  <g id="fork_arrow" transform="translate(0 -0.5)">
    <path id="Path_12" data-name="Path 12" d="M169.354.646a.5.5,0,0,0-.708,0l-3.182,3.182a.5.5,0,1,0,.708.707L169,1.707l2.828,2.828a.5.5,0,1,0,.708-.707ZM0,59.5H2.012v-1H0Zm4.024,0H8.048v-1H4.024Zm6.036,0h4.024v-1H10.059Zm6.036,0h4.024v-1H16.1Zm6.036,0h4.024v-1H22.131Zm6.036,0H32.19v-1H28.167Zm6.036,0h4.024v-1H34.2Zm6.036,0h4.024v-1H40.238Zm6.036,0H50.3v-1H46.274Zm6.036,0h4.024v-1H52.31Zm6.036,0h4.024v-1H58.345Zm6.036,0H68.4v-1H64.381Zm6.036,0H74.44v-1H70.417Zm6.036,0h4.024v-1H76.452Zm6.036,0H84.5v-1H82.488Zm2.012,0h2.076v-1H84.5Zm4.151,0H92.8v-1H88.651Zm6.227,0H99.03v-1H94.879Zm6.227,0h4.152v-1h-4.152Zm6.227,0h4.152v-1h-4.152Zm6.228,0h4.151v-1h-4.151Zm6.227,0h4.151v-1h-4.151Zm6.227,0h4.152v-1h-4.152Zm6.227,0h4.152v-1h-4.152Zm6.228,0h4.151v-1H138.47Zm6.227,0h4.151v-1H144.7Zm6.227,0H153v-1h-2.076Zm2.076,0a16.641,16.641,0,0,0,2.154-.139l-.129-.992A15.643,15.643,0,0,1,153,58.5Zm4.272-.558a16.418,16.418,0,0,0,3.98-1.65l-.5-.866a15.417,15.417,0,0,1-3.738,1.549Zm5.773-2.851a16.582,16.582,0,0,0,3.046-3.046l-.793-.609a15.586,15.586,0,0,1-2.862,2.862Zm4.247-4.839a16.413,16.413,0,0,0,1.65-3.98l-.967-.258a15.36,15.36,0,0,1-1.549,3.737Zm2.069-6.1A16.649,16.649,0,0,0,169.5,43h-1a15.728,15.728,0,0,1-.131,2.025ZM169.5,43V41h-1v2Zm0-4V35h-1v4Zm0-6V29h-1v4Zm0-6V23h-1v4Zm0-6V17h-1v4Zm0-6V11h-1v4Zm0-6V5h-1V9Zm0-6V1h-1V3Z" fill="#6c757d"/>
    <path id="Path_13" data-name="Path 13" d="M169.354,125.354a.5.5,0,0,1-.708,0l-3.182-3.182a.5.5,0,1,1,.708-.708L169,124.293l2.828-2.829a.5.5,0,1,1,.708.708ZM79,58.5h2.056v1H79Zm4.111,0h4.111v1H83.111Zm6.167,0h4.111v1H89.278Zm6.167,0h4.111v1H95.444Zm6.167,0h4.111v1h-4.111Zm6.167,0h4.111v1h-4.111Zm6.166,0h4.112v1h-4.112Zm6.167,0h4.111v1h-4.111Zm6.167,0h4.111v1h-4.111Zm6.166,0h4.112v1h-4.112Zm6.167,0h4.111v1h-4.111Zm6.167,0h4.111v1h-4.111Zm6.166,0H153v1h-2.056Zm2.056,0a16.641,16.641,0,0,1,2.154.139l-.129.992A15.643,15.643,0,0,0,153,59.5Zm4.272.558a16.418,16.418,0,0,1,3.98,1.65l-.5.866a15.41,15.41,0,0,0-3.737-1.549Zm5.773,2.851a16.586,16.586,0,0,1,3.046,3.046l-.793.609a15.586,15.586,0,0,0-2.862-2.862Zm4.247,4.839a16.413,16.413,0,0,1,1.65,3.98l-.967.258a15.36,15.36,0,0,0-1.549-3.737Zm2.069,6.1A16.649,16.649,0,0,1,169.5,75h-1a15.728,15.728,0,0,0-.131-2.025ZM169.5,75v2.083h-1V75Zm0,4.167v4.167h-1V79.167Zm0,6.25v4.167h-1V85.417Zm0,6.25v4.167h-1V91.667Zm0,6.25v4.166h-1V97.917Zm0,6.25v4.166h-1v-4.166Zm0,6.25v4.166h-1v-4.166Zm0,6.25v4.166h-1v-4.166Zm0,6.25V125h-1v-2.083Z" fill="#6c757d"/>
  </g>
</svg>
