<svg xmlns="http://www.w3.org/2000/svg" width="100%" height="30%" viewBox="0 0 175.724 79.993">
  <g id="fork_arrow_up" transform="translate(-5.776 -3.507)">
    <path id="Path_14" data-name="Path 14" d="M181.291,33.407a.5.5,0,0,0,.116-.7l-2.619-3.659a.5.5,0,0,0-.814.582l2.328,3.253-3.252,2.328a.5.5,0,1,0,.582.813ZM5.918,4.493l1.944.322.163-.987L6.082,3.507Zm3.889.644,3.889.644.163-.987L9.971,4.151Zm5.833.967,3.889.644.163-.987L15.8,5.118Zm5.833.967,3.889.644.163-.987-3.889-.644Zm5.833.967,3.889.644L31.36,7.7l-3.889-.644ZM33.14,9l3.889.644.164-.987L33.3,8.018Zm5.833.967,3.889.644.163-.987-3.889-.644Zm5.833.967,3.889.644.164-.987-3.889-.644Zm5.833.967,3.889.644.164-.987L50.8,10.918Zm5.833.967,3.889.644.163-.986-3.889-.645Zm5.833.967,3.889.644.163-.987-3.889-.644Zm5.833.967,3.889.644.163-.986L68.3,13.818Zm5.833.967,3.889.644.163-.987-3.889-.644Zm5.833.967,3.889.645.163-.987-3.889-.644Zm5.833.967,3.889.644.163-.986L85.8,16.718Zm5.833.967,3.889.644.163-.986-3.889-.645Zm5.833.967,3.889.645.164-.987-3.889-.644Zm5.833.967,3.889.644.164-.986-3.889-.644Zm5.834.967,3.889.644.163-.986-3.889-.645Zm5.833.967,3.889.644.164-.987-3.889-.644Zm5.833.967,3.889.644.164-.986-3.889-.644Zm5.834.967,3.889.644.163-.986-3.889-.644Zm5.833.967,3.889.644.164-.987-3.889-.644Zm5.833.967,3.889.644.164-.986-3.889-.644Zm5.834.967,3.889.644.163-.986-3.889-.644Zm5.833.967,3.889.645L153.86,28l-3.889-.644Zm5.833.967,3.889.644.164-.986-3.889-.644Zm5.834.967,3.889.644.163-.986-3.889-.645Zm5.833.967,3.889.645.164-.987-3.889-.644Zm5.833.967,3.889.644.164-.986-3.889-.644Zm5.834.967,1.944.322.164-.987-1.945-.322Z" fill="#6c757d"/>
    <path id="Path_15" data-name="Path 15" d="M52.646,83.354a.5.5,0,0,0,.707,0l3.182-3.182a.5.5,0,0,0-.707-.707L53,82.293l-2.828-2.828a.5.5,0,0,0-.707.707ZM47.472,24.736l-.224.447ZM53,33.68h0ZM5.776,4.447,7.5,5.311l.447-.894L6.224,3.553ZM9.232,6.175,12.688,7.9l.447-.894L9.68,5.281Zm5.184,2.592L17.872,10.5,18.32,9.6,14.864,7.873ZM19.6,11.359l3.456,1.728.447-.895-3.456-1.728Zm5.184,2.592,3.456,1.728.447-.895-3.456-1.728Zm5.184,2.592,3.456,1.728.447-.894-3.456-1.728Zm5.184,2.592,3.456,1.728.447-.894L35.6,18.241Zm5.184,2.592,3.456,1.728.447-.894-3.456-1.728Zm5.184,2.592,1.728.864.447-.894-1.728-.864Zm1.728.864a9.51,9.51,0,0,1,1.487.924l.6-.8A10.5,10.5,0,0,0,47.7,24.289Zm2.779,2.1a9.513,9.513,0,0,1,1.833,2.966l.933-.361a10.512,10.512,0,0,0-2.026-3.278Zm2.311,4.649A9.5,9.5,0,0,1,52.5,33.68h1a10.5,10.5,0,0,0-.178-1.927ZM52.5,33.68v2.055h1V33.68Zm0,4.11V41.9h1V37.79Zm0,6.165v4.11h1v-4.11Zm0,6.165v4.11h1V50.12Zm0,6.165V60.4h1v-4.11Zm0,6.165v4.11h1V62.45Zm0,6.165v4.11h1v-4.11Zm0,6.165v4.11h1V74.78Zm0,6.165V83h1V80.945Z" fill="#6c757d"/>
  </g>
</svg>
